<?xml version="1.0" encoding="UTF-8"?>
<svg width="870px" height="631px" viewBox="0 0 870 631" version="1.1" xmlns="http://www.w3.org/2000/svg" xmlns:xlink="http://www.w3.org/1999/xlink">
    <title>Group 14</title>
    <defs>
        <rect id="path-1" x="0" y="0" width="870" height="630"></rect>
    </defs>
    <g id="Page-1" stroke="none" stroke-width="1" fill="none" fill-rule="evenodd">
        <g id="Group-14" transform="translate(0.000000, 0.516710)">
            <mask id="mask-2" fill="white">
                <use xlink:href="#path-1"></use>
            </mask>
            <use id="Mask" fill="#003DA5" xlink:href="#path-1"></use>
            <path d="M-136.622995,284.612746 C-162.130513,336.215268 -178.941551,392.707758 -185.439663,452.326697 C-186.349492,460.64701 -179.514234,468.060239 -171.062531,468.060239 C-125.081571,468.060239 7.92422105,468.060239 52.4411429,468.060239 C60.5787937,468.060239 67.3401562,461.438983 67.6634454,453.362707 C69.9218513,396.828776 75.7179647,340.529675 84.8809041,286.675558 C86.086311,279.607666 80.9968154,273.396208 73.7643743,273.396208 L-118.537274,273.396208 C-126.296215,273.396208 -133.209985,277.710616 -136.622995,284.612746" id="Fill-11" fill-opacity="0.05" fill="#FFFFFF" mask="url(#mask-2)"></path>
            <path d="M323.251263,3.97903932e-13 C276.37433,3.97903932e-13 226.518518,68.4687689 191.640232,179.487631 C189.354116,186.753517 194.910072,194.48906 202.595118,194.48906 L708.43648,194.48906 C715.313303,194.48906 719.303616,186.283859 714.860698,181.080785 C620.945188,70.499349 480.531455,3.97903932e-13 323.251263,3.97903932e-13" id="Fill-12" fill-opacity="0.05" fill="#FFFFFF" mask="url(#mask-2)"></path>
            <path d="M180.440571,273.391604 C173.240459,273.391604 167.005596,278.272364 165.703202,285.308025 C156.28625,336.256708 149.857413,392.348608 147.368087,452.276047 C147.012469,460.845003 153.658371,468.055635 162.327139,468.055635 L817.58353,468.055635 C826.090654,468.055635 832.852017,460.582547 831.928333,452.202375 C825.430221,392.629481 808.623801,336.183036 783.130139,284.603538 C779.71251,277.701407 772.452359,273.391604 764.693418,273.391604 L180.440571,273.391604 Z" id="Fill-13" fill-opacity="0.05" fill="#FFFFFF" mask="url(#mask-2)"></path>
            <path d="M53.7296812,546.962783 L-175.745606,546.962783 C-181.68489,546.962783 -186.511136,552.184275 -185.924597,558.050395 C-165.87143,758.663428 -28.2610764,924.871709 157.971972,987.782859 C163.911256,989.785812 169.162397,983.468451 166.068057,978.053571 C107.312556,875.635896 73.7505191,718.438602 67.603406,560.26976 C67.326301,552.957829 61.1237669,546.962783 53.7296812,546.962783" id="Fill-14" fill-opacity="0.05" fill="#FFFFFF" mask="url(#mask-2)"></path>
            <path d="M323.218934,1015 C587.457046,1015 804.522647,816.606332 832.011465,562.014861 C832.902819,553.782033 826.580206,546.962783 818.220872,546.962783 L161.130969,546.962783 C153.25195,546.962783 146.989376,553.514973 147.312666,561.310374 C157.962735,824.235972 244.839778,1014.90791 323.218934,1015" id="Fill-15" fill-opacity="0.05" fill="#FFFFFF" mask="url(#mask-2)"></path>
            <path d="M107.631226,182.558826 C122.941279,127.415452 142.537222,77.8573243 166.081912,36.9280112 C169.190107,31.5039218 163.911256,25.2003747 157.953498,27.2033279 C68.9981679,57.2844622 -8.75750129,111.009654 -68.0856865,180.744657 C-72.6163536,186.085866 -68.5429098,194.479851 -61.4998238,194.479851 L92.1133452,194.479851 C99.387352,194.479851 105.691491,189.507002 107.631226,182.558826" id="Fill-17" fill-opacity="0.05" fill="#FFFFFF" mask="url(#mask-2)"></path>
            <g id="calendar" mask="url(#mask-2)" fill="#FFFFFF" fill-rule="nonzero">
                <g transform="translate(327.992832, 208.000000)" id="Shape">
                    <path d="M214.014336,192.53125 L214.014336,72.59375 C214.014336,70.8515 212.604359,69.4375 210.867066,69.4375 C209.129773,69.4375 207.719797,70.8515 207.719797,72.59375 L207.719797,192.53125 C207.719797,194.2735 206.30982,195.6875 204.572527,195.6875 L9.44180894,195.6875 C7.70451609,195.6875 6.29453929,194.2735 6.29453929,192.53125 L6.29453929,72.59375 C6.29453929,70.8515 4.88456249,69.4375 3.14726965,69.4375 C1.4099768,69.4375 0,70.8515 0,72.59375 L0,192.53125 C0,197.751688 4.23622494,202 9.44180894,202 L204.572527,202 C209.778111,202 214.014336,197.751688 214.014336,192.53125 Z M28.3254268,145.1875 C26.588134,145.1875 25.1781572,146.6015 25.1781572,148.34375 C25.1781572,150.086 26.588134,151.5 28.3254268,151.5 L37.7672357,151.5 L37.7672357,173.59375 C37.7672357,175.336 39.1772125,176.75 40.9145054,176.75 C42.6517982,176.75 44.061775,175.336 44.061775,173.59375 L44.061775,151.5 L81.8290108,151.5 L81.8290108,173.59375 C81.8290108,175.336 83.2389876,176.75 84.9762804,176.75 C86.7135733,176.75 88.1235501,175.336 88.1235501,173.59375 L88.1235501,151.5 L125.890786,151.5 L125.890786,173.59375 C125.890786,175.336 127.300763,176.75 129.038055,176.75 C130.775348,176.75 132.185325,175.336 132.185325,173.59375 L132.185325,151.5 L169.952561,151.5 L169.952561,173.59375 C169.952561,175.336 171.362538,176.75 173.09983,176.75 C174.837123,176.75 176.2471,175.336 176.2471,173.59375 L176.2471,151.5 L185.688909,151.5 C187.426202,151.5 188.836179,150.086 188.836179,148.34375 C188.836179,146.6015 187.426202,145.1875 185.688909,145.1875 L176.2471,145.1875 L176.2471,113.625 L185.688909,113.625 C187.426202,113.625 188.836179,112.211 188.836179,110.46875 C188.836179,108.7265 187.426202,107.3125 185.688909,107.3125 L176.2471,107.3125 L176.2471,78.90625 C176.2471,77.164 174.837123,75.75 173.09983,75.75 C171.362538,75.75 169.952561,77.164 169.952561,78.90625 L169.952561,107.3125 L132.185325,107.3125 L132.185325,78.90625 C132.185325,77.164 130.775348,75.75 129.038055,75.75 C127.300763,75.75 125.890786,77.164 125.890786,78.90625 L125.890786,107.3125 L88.1235501,107.3125 L88.1235501,78.90625 C88.1235501,77.164 86.7135733,75.75 84.9762804,75.75 C83.2389876,75.75 81.8290108,77.164 81.8290108,78.90625 L81.8290108,107.3125 L44.061775,107.3125 L44.061775,78.90625 C44.061775,77.164 42.6517982,75.75 40.9145054,75.75 C39.1772125,75.75 37.7672357,77.164 37.7672357,78.90625 L37.7672357,107.3125 L28.3254268,107.3125 C26.588134,107.3125 25.1781572,108.7265 25.1781572,110.46875 C25.1781572,112.211 26.588134,113.625 28.3254268,113.625 L37.7672357,113.625 L37.7672357,145.1875 L28.3254268,145.1875 Z M169.952561,113.625 L169.952561,145.1875 L132.185325,145.1875 L132.185325,113.625 L169.952561,113.625 Z M125.890786,113.625 L125.890786,145.1875 L88.1235501,145.1875 L88.1235501,113.625 L125.890786,113.625 Z M44.061775,113.625 L81.8290108,113.625 L81.8290108,145.1875 L44.061775,145.1875 L44.061775,113.625 Z M179.39437,18.9375 L206.146162,18.9375 C206.693787,18.9375 207.719797,18.9375 207.719797,22.09375 L207.719797,50.5 L6.29453929,50.5 L6.29453929,22.09375 C6.29453929,20.3515 7.70451609,18.9375 9.44180894,18.9375 L34.6199661,18.9375 C36.3572589,18.9375 37.7672357,17.5235 37.7672357,15.78125 C37.7672357,14.039 36.3572589,12.625 34.6199661,12.625 L9.44180894,12.625 C4.23622494,12.625 0,16.8733125 0,22.09375 L0,53.65625 C0,55.3985 1.4099768,56.8125 3.14726965,56.8125 L210.867066,56.8125 C212.604359,56.8125 214.014336,55.3985 214.014336,53.65625 L214.014336,22.09375 C214.014336,15.112125 209.948063,12.625 206.146162,12.625 L179.39437,12.625 C177.657077,12.625 176.2471,14.039 176.2471,15.78125 C176.2471,17.5235 177.657077,18.9375 179.39437,18.9375 Z M141.627134,18.9375 C143.364427,18.9375 144.774404,17.5235 144.774404,15.78125 C144.774404,14.039 143.364427,12.625 141.627134,12.625 L72.3872018,12.625 C70.649909,12.625 69.2399322,14.039 69.2399322,15.78125 C69.2399322,17.5235 70.649909,18.9375 72.3872018,18.9375 L141.627134,18.9375 Z M56.6508536,28.40625 L56.6508536,3.15625 C56.6508536,1.414 55.2408768,0 53.503584,0 C51.7662911,0 50.3563143,1.414 50.3563143,3.15625 L50.3563143,28.40625 C50.3563143,30.1485 51.7662911,31.5625 53.503584,31.5625 C55.2408768,31.5625 56.6508536,30.1485 56.6508536,28.40625 Z M160.510752,31.5625 C162.248045,31.5625 163.658022,30.1485 163.658022,28.40625 L163.658022,3.15625 C163.658022,1.414 162.248045,0 160.510752,0 C158.773459,0 157.363482,1.414 157.363482,3.15625 L157.363482,28.40625 C157.363482,30.1485 158.773459,31.5625 160.510752,31.5625 Z"></path>
                </g>
            </g>
        </g>
    </g>
</svg>